# xmcd
# 
# Track frame offsets:
#     150
#     16155
#     35640
#     50437
#     65957
#     77812
#     91410
#     106172
#     117527
#     129987
#     142167
#     156682
# 
# Disc length: 2260
# 
# Revision: 4
# Processed by: cddbd v1.5.2PL0 Copyright (c) Steve Scherf et al.
# Submitted via: fre:ac v1.0.31
# 
DISCID=ae08d20c
DTITLE=Tina Turner - Sings Country
DYEAR=1999
DGENRE=Country
TTITLE0=Lay It Down
TTITLE1=Lovin' Him Was Easier
TTITLE2=Good Hearted Woman
TTITLE3=If This Was Our Last Time
TTITLE4=Stand By Your Man
TTITLE5=Freedom To Stay
TTITLE6=We Had It All
TTITLE7=Soul Deep
TTITLE8=If It's All Right With You
TTITLE9=You Ain't Woman Enough To Take My Man
TTITLE10=Lay It Down - Lovin' Him Was Easier (Medley)
TTITLE11=Stand By Your Man - We Had It All - Soul Deep - You Ain't Woman Enough To Take My Man (Medley)
EXTD=YEAR: 1974 ID3G:   2
EXTT0=
EXTT1=
EXTT2=
EXTT3=
EXTT4=
EXTT5=
EXTT6=
EXTT7=
EXTT8=
EXTT9=
EXTT10=
EXTT11=
PLAYORDER=
